grf
version=1
nRows=11
nColumns=37
inDegrees=no
endheader
time	ground_force_1_vx	ground_force_1_vy	ground_force_1_vz	ground_force_1_px	ground_force_1_py	ground_force_1_pz	ground_moment_1_mx	ground_moment_1_my	ground_moment_1_mz	ground_force_2_vx	ground_force_2_vy	ground_force_2_vz	ground_force_2_px	ground_force_2_py	ground_force_2_pz	ground_moment_2_mx	ground_moment_2_my	ground_moment_2_mz	ground_force_3_vx	ground_force_3_vy	ground_force_3_vz	ground_force_3_px	ground_force_3_py	ground_force_3_pz	ground_moment_3_mx	ground_moment_3_my	ground_moment_3_mz	ground_force_4_vx	ground_force_4_vy	ground_force_4_vz	ground_force_4_px	ground_force_4_py	ground_force_4_pz	ground_moment_4_mx	ground_moment_4_my	ground_moment_4_mz
      1.76000000	      0.00000000	     -0.00000000	      0.00000000	      0.00000000	      0.00000000	      0.00000000	      0.00000000	      0.00000000	      0.00000000	      2.69685650	     25.48455238	   -374.34286499	   -407.39096889	  -1063.25493371	      0.00000000	      0.00000000	      0.00000000	   2106.84087341	     -2.88688276	    -26.97217535	   -357.23690796	   -385.15778741	   -724.37916504	      0.00000000	     -0.00000000	     -0.00000000	  -2707.04004982	      0.00000000	     -0.00000000	      0.00000000	      0.00000000	      0.00000000	      0.00000000	      0.00000000	      0.00000000	      0.00000000
      1.77000000	      0.00000000	     -0.00000000	      0.00000000	      0.00000000	      0.00000000	      0.00000000	      0.00000000	      0.00000000	      0.00000000	      3.67832756	     25.62178040	   -373.28576660	   -407.82196872	  -1063.01713039	      0.00000000	      0.00000000	      0.00000000	   2343.67348407	     -3.07749601	    -26.79545566	   -357.77264404	   -384.94630355	   -723.21950887	      0.00000000	      0.00000000	     -0.00000000	  -2653.72772781	      0.00000000	     -0.00000000	      0.00000000	      0.00000000	      0.00000000	      0.00000000	      0.00000000	      0.00000000	      0.00000000
      1.78000000	      0.00000000	     -0.00000000	      0.00000000	      0.00000000	      0.00000000	      0.00000000	      0.00000000	      0.00000000	      0.00000000	      3.50003719	     24.89408684	   -374.01757812	   -408.53405536	  -1063.92882917	      0.00000000	      0.00000000	      0.00000000	   2191.74622313	     -2.77060887	    -26.93811392	   -358.14862061	   -384.99721563	   -723.99049446	      0.00000000	     -0.00000000	     -0.00000000	  -2746.55590149	      0.00000000	     -0.00000000	      0.00000000	      0.00000000	      0.00000000	      0.00000000	      0.00000000	      0.00000000	      0.00000000
      1.79000000	      0.00000000	     -0.00000000	      0.00000000	      0.00000000	      0.00000000	      0.00000000	      0.00000000	      0.00000000	      0.00000000	      3.15649438	     24.68374634	   -372.22082520	   -409.23713340	  -1062.80088894	      0.00000000	      0.00000000	      0.00000000	   2156.39416434	     -3.04277466	    -27.02643559	   -358.39251709	   -385.08152210	   -724.38612735	      0.00000000	      0.00000000	     -0.00000000	  -2692.28363798	      0.00000000	     -0.00000000	      0.00000000	      0.00000000	      0.00000000	      0.00000000	      0.00000000	      0.00000000	      0.00000000
      1.80000000	      0.00000000	     -0.00000000	      0.00000000	      0.00000000	      0.00000000	      0.00000000	      0.00000000	      0.00000000	      0.00000000	      3.08831906	     24.40880585	   -371.47525024	   -409.56675017	  -1062.97574336	      0.00000000	      0.00000000	      0.00000000	   2125.12149772	     -3.02924007	    -26.55104801	   -358.92785645	   -385.07655225	   -723.95970806	      0.00000000	      0.00000000	     -0.00000000	  -2668.05404250	      0.00000000	     -0.00000000	      0.00000000	      0.00000000	      0.00000000	      0.00000000	      0.00000000	      0.00000000	      0.00000000
      1.81000000	      0.00000000	     -0.00000000	      0.00000000	      0.00000000	      0.00000000	      0.00000000	      0.00000000	      0.00000000	      0.00000000	      3.33477211	     24.26469421	   -371.46121216	   -410.09813720	  -1064.33548022	      0.00000000	      0.00000000	      0.00000000	   2078.42857089	     -3.52268263	    -26.80325859	   -359.32769775	   -385.28134138	   -723.94818104	      0.00000000	     -0.00000000	     -0.00000000	  -2495.60724738	      0.00000000	     -0.00000000	      0.00000000	      0.00000000	      0.00000000	      0.00000000	      0.00000000	      0.00000000	      0.00000000
      1.82000000	      0.00000000	     -0.00000000	      0.00000000	      0.00000000	      0.00000000	      0.00000000	      0.00000000	      0.00000000	      0.00000000	      3.87885046	     23.83530235	   -372.01840210	   -410.82583487	  -1063.67670071	      0.00000000	      0.00000000	      0.00000000	   1997.71850855	     -3.45122569	    -26.48391693	   -359.49319458	   -385.03059639	   -724.41141551	      0.00000000	      0.00000000	     -0.00000000	  -2470.96662680	      0.00000000	     -0.00000000	      0.00000000	      0.00000000	      0.00000000	      0.00000000	      0.00000000	      0.00000000	      0.00000000
      1.83000000	      0.00000000	     -0.00000000	      0.00000000	      0.00000000	      0.00000000	      0.00000000	      0.00000000	      0.00000000	      0.00000000	      3.70379806	     23.63186836	   -372.03247070	   -411.48750693	  -1063.13305290	      0.00000000	      0.00000000	      0.00000000	   1902.11022544	     -3.53597231	    -26.70672577	   -360.02438354	   -385.01770841	   -723.51770797	      0.00000000	     -0.00000000	     -0.00000000	  -2677.23769903	      0.00000000	     -0.00000000	      0.00000000	      0.00000000	      0.00000000	      0.00000000	      0.00000000	      0.00000000	      0.00000000
      1.84000000	      0.00000000	     -0.00000000	      0.00000000	      0.00000000	      0.00000000	      0.00000000	      0.00000000	      0.00000000	      0.00000000	      3.57102227	     23.86531448	   -371.32586670	   -412.71077384	  -1062.98701339	      0.00000000	      0.00000000	      0.00000000	   2004.52021058	     -3.92466922	    -26.75834240	   -360.67364502	   -384.92368550	   -723.88014137	      0.00000000	     -0.00000000	     -0.00000000	  -2475.51613059	      0.00000000	     -0.00000000	      0.00000000	      0.00000000	      0.00000000	      0.00000000	      0.00000000	      0.00000000	      0.00000000
      1.85000000	      0.00000000	     -0.00000000	      0.00000000	      0.00000000	      0.00000000	      0.00000000	      0.00000000	      0.00000000	      0.00000000	      3.66754460	     23.63143921	   -370.65844727	   -414.00715444	  -1061.95551163	      0.00000000	      0.00000000	      0.00000000	   1973.83215209	     -3.82660098	    -26.76147046	   -359.84317017	   -385.46763346	   -724.09958748	      0.00000000	      0.00000000	     -0.00000000	  -2534.67192097	      0.00000000	     -0.00000000	      0.00000000	      0.00000000	      0.00000000	      0.00000000	      0.00000000	      0.00000000	      0.00000000
      1.86000000	      0.00000000	     -0.00000000	      0.00000000	      0.00000000	      0.00000000	      0.00000000	      0.00000000	      0.00000000	      0.00000000	      3.86968827	     23.79636002	   -371.85217285	   -413.88453270	  -1062.28948370	      0.00000000	     -0.00000000	      0.00000000	   2036.47334797	     -3.79288933	    -26.94990125	   -361.89169312	   -385.15957249	   -724.03994190	      0.00000000	      0.00000000	     -0.00000000	  -2470.86948862	      0.00000000	     -0.00000000	      0.00000000	      0.00000000	      0.00000000	      0.00000000	      0.00000000	      0.00000000	      0.00000000
